<svg xmlns="http://www.w3.org/2000/svg" xmlns:xlink="http://www.w3.org/1999/xlink" width="400" height="400" viewBox="0 0 400 400">
<rect data-name="background" width="100%" height="100%" fill="none"/><g data-name="container" data="container_num:20" fill="#9EB384" transform="translate(43.57578335290057, 43.19999999999999) scale(2.9063949744135975)"><path xmlns="http://www.w3.org/2000/svg" d="M4.6 5.1h98.3v24.1c.1 2.9.1 6 .2 8.1s.1 1 .1.8a61.5 61.5 0 0 0 .3-6.7v-4.2c.1-6.7 0-13.5 0-20.2V4.3H4.6V.8h102.3v24.1c.1 2.9.1 6 .2 8.1s.1 1 .1.8a61.5 61.5 0 0 0 .3-6.7v-4.2c.1-6.7 0-13.5 0-20.2V0H4v4.5H0v47.1c.1 2.7.1 5.8 0 8.7v47.6h43.5l16.7-.2h10.9a64.7 64.7 0 0 0 8.1-.3H.7V36.7C.6 31.5.6 26.3.6 21V5.1H4v42.1c-.1 2.7-.1 5.8-.1 8.8v47.6h43.6l16.7-.2h10.9a64.7 64.7 0 0 0 8.1-.3H4.7V16.7c0-5.3-.1-7.7-.1-11.6zm103 53.2v-4.7l-.2-7.8c-.1-3.2-.2-3.8-.3-3.8 0 1.9-.1 3.9-.1 5.9v17.3c0 3.1 0 6.3-.1 9.2v15.7c0 3.3 0 6.3.1 9.3v3.9l-1.9-.2h-1.7q.1-2.4.1-5.2V73.6c0-3.5.1-6.9.1-10.8v-4.7l-.2-7.8c-.1-3.2-.2-3.8-.3-3.8 0 1.9-.1 3.9-.1 5.9v17.3c0 3.1 0 6.3-.1 9.2v15.7c0 3.3 0 5.8.1 8.5H92.4c-.4.1-1.3.1-.9.1l3.5.2h8v4.2l-1.9-.2H88.4c-.4.1-1.3.1-.9.1l3.5.2h12.1c.1.3.1.1.2-1.2s.1-2 .1-3h3.7c.1.3.1.1.2-1.2s.1-5.3.2-8.7V69.3c.1-3.8.2-7.2.1-11z"/></g><g data-name="icon" fill="#9EB384" data="id:7152396" transform="translate(148.51737694513272, 96.24541241941897) scale(1.0296112992686703)">
  
 <path d="m37.332 77.914h25.332l0.003907-27.41h-25.336zm10.281-16.582 2.3867-4.8203 2.3867 4.8203 5.3398 0.78516-3.8711 3.7539 0.91797 5.3242-4.7734-2.5078-4.7773 2.5078 0.91797-5.3242-3.8711-3.7539z"/>
 <path d="m34.367 57.844h-14.684c-3.0117 0-5.4531 2.4414-5.4531 5.4531v14.617h20.141z"/>
 <path d="m65.633 77.914h20.141v-14.617c0-3.0117-2.4414-5.4531-5.4531-5.4531h-14.684z"/>
 <path d="m13.461 80.957h73.082v6.6445h-73.082z"/>
 <path d="m42.172 39.555h15.656v7.8125h-15.656z"/>
 <path d="m36.977 26.168 6.1172 1.9609c0.87109 0.75781 1.8516 1.3906 2.9375 1.832 0.09375 0.039062 0.19531 0.066406 0.29297 0.10547 0.28516 2.1484 0.4375 5.8594-1.418 7.9258h10.188c-1.8555-2.0664-1.7031-5.7773-1.418-7.9258 0.097657-0.035156 0.19922-0.066406 0.29297-0.10547 1.0742-0.4375 2.0469-1.0625 2.9141-1.8125 0.027344-0.007813 0.054688-0.003907 0.082032-0.011719l6.1445-1.9688c2.7773-0.89844 4.6445-3.4609 4.6445-6.375v-4.7539c0-0.86328-0.69922-1.5625-1.5625-1.5625h-5.6289v-1.0781h-21.125v1.0781h-5.543c-0.86328 0-1.5625 0.69922-1.5625 1.5625v4.75c0 2.9141 1.8633 5.4805 4.6445 6.3789zm23.586-5.9883v-3.5781h4.0664v3.1875c0 1.5547-0.99609 2.9219-2.4766 3.4023l-2.2969 0.73438c0.44531-1.1641 0.70703-2.4219 0.70703-3.7461zm-25.105-3.5781h3.9805v3.5781c0 1.3086 0.25391 2.5586 0.69141 3.7148l-2.1953-0.70312c-1.4844-0.48047-2.4805-1.8477-2.4805-3.4023z"/>

  </g><g data-name="business_name" fill="#9EB384" data="id:299" transform="translate(99.47451032210004, 182.23358081324622) scale(1.3014694245693152)"><path d="M4.24,39.52l-2.72,1.84q0.92,1.84,2.38,3.46t3.4,2.6t4.22,0.98q1.68,0,3.22-0.56t2.76-1.6t1.92-2.52t0.7-3.32q0-1.92-0.68-3.3t-1.74-2.36t-2.3-1.62t-2.36-1.04q-2.44-0.84-3.86-1.7t-2.02-1.84t-0.6-2.14q0-1.36,1.04-2.46t3.32-1.1q1.64,0,2.78,0.64t1.94,1.64t1.32,2.04l2.92-1.68q-0.68-1.48-1.88-2.82t-2.9-2.2t-3.98-0.86q-2.36,0-4.2,0.94t-2.88,2.58t-1.04,3.72q0,1.92,0.74,3.24t1.9,2.22t2.44,1.48t2.32,0.94q1.6,0.56,3.02,1.26t2.3,1.82t0.88,3q0,1.92-1.36,3.16t-3.6,1.24q-1.68,0-3-0.72t-2.38-2t-2.02-2.96z M36.72,36.8l0,11.2l3.2,0l0-11.6q0-3.32-1.7-5.26t-4.62-1.94q-1.8,0-3.18,0.8t-2.3,2.48l0-2.88l-3.2,0l0,18.4l3.2,0l0-11.2q0-1.36,0.58-2.4t1.64-1.62t2.46-0.58q1.92,0,2.92,1.16t1,3.44z M47.36,42.32q0-1,0.48-1.72t1.46-1.12t2.54-0.4q1.68,0,3.16,0.42t2.88,1.38l0-1.88q-0.28-0.36-1.08-0.94t-2.14-1.04t-3.34-0.46q-3.4,0-5.3,1.62t-1.9,4.3q0,1.88,0.88,3.2t2.34,2.02t3.14,0.7q1.52,0,3.06-0.56t2.6-1.72t1.06-2.92l-0.64-2.4q0,1.44-0.7,2.54t-1.88,1.7t-2.66,0.6q-1.16,0-2.06-0.38t-1.4-1.14t-0.5-1.8z M46.88,33.84q0.44-0.32,1.2-0.76t1.86-0.76t2.46-0.32q0.84,0,1.6,0.16t1.34,0.52t0.9,0.98t0.32,1.58l0,12.76l3.2,0l0-13.2q0-1.8-0.9-3.04t-2.52-1.9t-3.78-0.66q-2.56,0-4.38,0.76t-2.86,1.52z M68.16,56.8l0-27.2l-3.2,0l0,27.2l3.2,0z M83.56,38.8q0-3-1.24-5.14t-3.3-3.3t-4.58-1.16q-2.28,0-4.02,1.16t-2.72,3.3t-0.98,5.14q0,2.96,0.98,5.12t2.72,3.32t4.02,1.16q2.52,0,4.58-1.16t3.3-3.32t1.24-5.12z M80.32,38.8q0,2.12-0.86,3.6t-2.28,2.24t-3.14,0.76q-1.4,0-2.76-0.76t-2.24-2.24t-0.88-3.6t0.88-3.6t2.24-2.24t2.76-0.76q1.72,0,3.14,0.76t2.28,2.24t0.86,3.6z M113.08,40.6l-8.32-22l-8.16,22l-7.44-20.6l-3.8,0l11,29.4l8.4-21.76l8.4,21.76l11-29.4l-3.8,0z M127.56,22q0,0.88,0.66,1.54t1.54,0.66q0.92,0,1.56-0.66t0.64-1.54q0-0.92-0.64-1.56t-1.56-0.64q-0.88,0-1.54,0.64t-0.66,1.56z M128.16,29.6l0,18.4l3.2,0l0-18.4l-3.2,0z M149.76,36.8l0,11.2l3.2,0l0-11.6q0-3.32-1.7-5.26t-4.62-1.94q-1.8,0-3.18,0.8t-2.3,2.48l0-2.88l-3.2,0l0,18.4l3.2,0l0-11.2q0-1.36,0.58-2.4t1.64-1.62t2.46-0.58q1.92,0,2.92,1.16t1,3.44z"/></g><g data-name="slogan" fill="#9EB384" data="id:169" transform="translate(100.46362581987303, 253.81912228083354) scale(0.6507345155845478)"><path d="M11.8,18.96q5.16,0,7.92,3.32l-2.76,2.4q-1.6-2.52-5.16-2.6q-2.68,0-4.36,1.28t-1.68,3.48q0,1.92,1.28,3.04t4.8,2.2q4.56,1.32,6.46,3.22t1.9,5.14q0,3.76-2.8,6t-7.16,2.28q-2.92,0-5.2-1.04t-3.52-2.88l2.88-2.36q0.92,1.52,2.56,2.34t3.48,0.82q2.52,0,4.34-1.42t1.82-3.5q0-1.88-1.06-2.96t-3.5-1.84l-3.24-1.08q-3.64-1.24-5.14-3.1t-1.5-4.58q0-3.6,2.68-5.86t6.96-2.3z M34.4,28.8q3.52,0,5.32,2.04t1.8,5.44l0,11.72l-3.12,0l0-11.36q0-2.16-1-3.54t-3.28-1.42q-2.88,0-4.34,1.9t-1.46,5.26l0,9.16l-3.12,0l0-14.56q0-0.2-0.16-4.16l2.96,0q0.08,2.8,0.08,3.08l0.08,0q0.76-1.6,2.46-2.58t3.78-0.98z M54.64,28.8q4.08,0,5.94,1.92t1.9,5.8l0,8.4q0,1.2,0.28,3.08l-3,0q-0.2-0.36-0.2-2.8l-0.08,0q-2.12,3.2-6.16,3.28q-3.08,0-5.02-1.54t-1.94-4.02q0-3.4,2.8-4.98t8.76-1.58l1.44,0l0-0.52q0-4.08-4.64-4.16q-3.36,0-5.56,2.04l-1.96-2.04q2.88-2.8,7.44-2.88z M49.72,42.6q0,3.16,4.12,3.24q2.44,0,3.98-1.56t1.54-4.56l0-0.72l-3.44,0q-2.76,0-4.46,0.88t-1.74,2.72z M77.96,28.8q4.44,0,7.12,2.8t2.72,7.04q0,4.2-2.72,6.98t-6.64,2.86q-2.4,0-4.34-1.04t-2.86-2.76l-0.08,0l0,12.44l-3.12,0l0-27.84l3.12,0l0,2.72l0.08,0q2.76-3.2,6.72-3.2z M71.16,38.64q0,3.08,1.86,4.98t4.78,1.98q2.92,0,4.76-1.94t1.88-5.02q0-3.04-1.86-5t-4.82-1.96q-2.88,0-4.72,1.94t-1.88,5.02z  M105.6,19.68q0.92,0,1.6,0.66t0.68,1.62q0,1-0.64,1.64t-1.64,0.64t-1.64-0.64t-0.64-1.64q0-0.96,0.68-1.62t1.6-0.66z M107.16,29.28l0,18.72l-3.12,0l0-18.72l3.12,0z M122.56,28.8q3.52,0,5.32,2.04t1.8,5.44l0,11.72l-3.12,0l0-11.36q0-2.16-1-3.54t-3.28-1.42q-2.88,0-4.34,1.9t-1.46,5.26l0,9.16l-3.12,0l0-14.56q0-0.2-0.16-4.16l2.96,0q0.08,2.8,0.08,3.08l0.08,0q0.76-1.6,2.46-2.58t3.78-0.98z M141.08,43.92l-3.28,9.6l-3.08,0l2.72-9.6l3.64,0z  M158.84,19.68l6.44,23.52l0.08,0l6.96-23.52l3.76,0l6.92,23.52l0.08,0l6.56-23.52l3.52,0l-8.32,28.32l-3.64,0l-7-24l-0.08,0l-7.04,24l-3.68,0l-8.28-28.32l3.72,0z M198.2,19.68q0.92,0,1.6,0.66t0.68,1.62q0,1-0.64,1.64t-1.64,0.64t-1.64-0.64t-0.64-1.64q0-0.96,0.68-1.62t1.6-0.66z M199.76,29.28l0,18.72l-3.12,0l0-18.72l3.12,0z M215.16,28.8q3.52,0,5.32,2.04t1.8,5.44l0,11.72l-3.12,0l0-11.36q0-2.16-1-3.54t-3.28-1.42q-2.88,0-4.34,1.9t-1.46,5.26l0,9.16l-3.12,0l0-14.56q0-0.2-0.16-4.16l2.96,0q0.08,2.8,0.08,3.08l0.08,0q0.76-1.6,2.46-2.58t3.78-0.98z  M248.24,28.8q4.36,0,7.12,2.7t2.88,7.14q0,4.28-2.8,7.02t-7.2,2.82q-4.4,0-7.16-2.78t-2.84-7.06q0-4.32,2.8-7.06t7.2-2.78z M241.6,38.64q0,3.08,1.86,4.98t4.78,1.98q2.92,0,4.76-1.94t1.88-5.02q0-3.04-1.86-5t-4.82-1.96q-2.88,0-4.72,1.94t-1.88,5.02z M266.2,29.28l0,11.36q0,2.16,1.02,3.54t3.26,1.42q2.88,0,4.34-1.92t1.46-5.12l0-9.28l3.12,0l0,14.56q0.04,1.12,0.16,4.16l-2.96,0q-0.04-1.92-0.08-3.08l-0.08,0q-0.72,1.56-2.42,2.56t-3.86,1q-3.44-0.04-5.26-2.06t-1.82-5.42l0-11.72l3.12,0z M290.04,23.96l0,5.32l5.52,0l0,2.64l-5.52,0l0,10q0,2.24,0.72,2.96t2.08,0.72q1.56,0,2.76-0.64l0.12,2.84q-1.6,0.68-3.64,0.68q-2.88,0-4.02-1.42t-1.14-4.66l0-10.48l-4.08,0l0-2.64l4.08,0l0-5.32l3.12,0z M303.68,19.68l0,20.4l-3.36,0l0-20.4l3.36,0z M304.4,45.84q0,0.96-0.72,1.68t-1.68,0.72q-0.92,0-1.66-0.72t-0.74-1.68q0-1,0.7-1.7t1.7-0.7t1.7,0.72t0.7,1.68z"/></g></svg>